<?xml version="1.0" standalone="no"?>
<!DOCTYPE svg PUBLIC "-//W3C//DTD SVG 20010904//EN"
 "http://www.w3.org/TR/2001/REC-SVG-20010904/DTD/svg10.dtd">
<svg version="1.0" xmlns="http://www.w3.org/2000/svg"
 width="225.000000pt" height="225.000000pt" viewBox="0 0 225.000000 225.000000"
 preserveAspectRatio="xMidYMid meet">

<g transform="translate(0.000000,225.000000) scale(0.100000,-0.100000)"
fill="#000000" stroke="none">
<path d="M1087 2054 c-18 -6 -771 -940 -795 -987 -18 -36 -7 -81 25 -107 24
-19 40 -20 229 -20 l203 0 3 -351 3 -351 28 -24 28 -24 314 0 314 0 28 24 28
24 3 351 3 351 203 0 c189 0 205 1 229 20 30 24 42 66 28 101 -7 19 -732 933
-775 977 -14 14 -71 23 -99 16z m323 -589 l272 -340 -186 -3 -186 -2 0 -375 0
-375 -185 0 -185 0 0 375 0 375 -186 2 -186 3 278 348 c153 191 281 344 285
340 4 -5 130 -161 279 -348z"/>
</g>
</svg>
